<?xml version="1.0" encoding="utf-8"?>
<!-- Generator: Adobe Illustrator 22.0.1, SVG Export Plug-In . SVG Version: 6.00 Build 0)  -->
<svg version="1.1" id="Layer_1" xmlns="http://www.w3.org/2000/svg" xmlns:xlink="http://www.w3.org/1999/xlink" x="0px" y="0px"
	 viewBox="0 0 151.3 151.3" style="enable-background:new 0 0 151.3 151.3;" xml:space="preserve">
<style type="text/css">
	.st0{fill:#5BEFBD;stroke:#000000;stroke-width:1.2233;stroke-linecap:round;stroke-linejoin:round;stroke-miterlimit:10;}
	.st1{fill:#DDE3E9;stroke:#000000;stroke-width:0.9905;stroke-linecap:round;stroke-linejoin:round;stroke-miterlimit:10;}
	.st2{fill:#FFFFFF;stroke:#000000;stroke-width:0.9905;stroke-linecap:round;stroke-linejoin:round;stroke-miterlimit:10;}
	.st3{fill:#0092FA;stroke:#000000;stroke-width:0.9905;stroke-linecap:round;stroke-linejoin:round;stroke-miterlimit:10;}
	.st4{fill:#FFFFFF;}
	.st5{fill:none;stroke:#EF8087;stroke-width:1.2233;stroke-linecap:round;stroke-linejoin:round;stroke-miterlimit:10;}
	.st6{fill:none;stroke:#0092FA;stroke-width:1.2233;stroke-linecap:round;stroke-linejoin:round;stroke-miterlimit:10;}
	.st7{fill:none;stroke:#FFE566;stroke-width:1.2233;stroke-linecap:round;stroke-linejoin:round;stroke-miterlimit:10;}
	.st8{fill:#FFFFFF;stroke:#000000;stroke-width:0.9787;stroke-linecap:round;stroke-linejoin:round;stroke-miterlimit:10;}
	.st9{fill:#EF8087;stroke:#000000;stroke-width:1.2233;stroke-miterlimit:10;}
	.st10{fill:none;stroke:#000000;stroke-width:0.9175;stroke-linecap:round;stroke-linejoin:round;stroke-miterlimit:10;}
</style>
<g>
	<circle class="st0" cx="76.1" cy="74.8" r="70.9"/>
	<g>
		<path id="XMLID_171_" class="st1" d="M85.9,118.8c-2.5-0.7-6-1.1-9.9-1.1s-7.4,0.4-9.9,1.1h-3.8v2.5c0,2,6.1,3.6,13.7,3.6
			c7.6,0,13.7-1.6,13.7-3.6v-2.5H85.9z"/>
		<ellipse id="XMLID_167_" class="st2" cx="76.1" cy="118.8" rx="13.7" ry="3.6"/>
		<path id="XMLID_158_" class="st2" d="M31.5,102.6c0,5.7,4.6,10.2,10.2,10.2h68.8c5.7,0,10.2-4.6,10.2-10.2v-0.2H31.5V102.6z"/>
		<path id="XMLID_160_" class="st3" d="M110.5,49.9H41.7c-5.7,0-10.2,4.6-10.2,10.2v42.2h89.3V60.1
			C120.7,54.5,116.1,49.9,110.5,49.9z"/>
		<path id="XMLID_6_" class="st4" d="M105.8,96.8H46V68.5c0-2.7,2.2-4.9,4.9-4.9h50.1c2.7,0,4.9,2.2,4.9,4.9V96.8z"/>
		<circle id="XMLID_156_" class="st1" cx="76.1" cy="107.4" r="1.8"/>
		<rect id="XMLID_166_" x="69" y="112.8" class="st1" width="14.1" height="6"/>
		<g id="XMLID_9_">
			<path id="XMLID_13_" class="st5" d="M72.8,87.8L72.8,87.8c-1.6,0-2.9-1.3-2.9-2.9v-3.7l-3.1-1.4l3.1-1.4v-3.7
				c0-1.6,1.3-2.9,2.9-2.9l0,0"/>
			<path id="XMLID_11_" class="st5" d="M79.5,87.8L79.5,87.8c1.6,0,2.9-1.3,2.9-2.9v-3.7l3.1-1.4l-3.1-1.4v-3.7
				c0-1.6-1.3-2.9-2.9-2.9h0"/>
		</g>
		<polyline id="XMLID_1_" class="st6" points="55.1,75.3 61.6,79.9 61.6,79.9 55.1,84.5 		"/>
		<line id="XMLID_17_" class="st7" x1="87.1" y1="87.8" x2="97.6" y2="71.7"/>
	</g>
	<g>
		<path class="st8" d="M125.3,39.8v9.7c0,0.8,0.9,1.2,1.5,0.7l13.3-10.4H125.3z"/>
		<path class="st9" d="M142.8,25.3h-20c-1,0-1.9,0.8-1.9,1.9v16c0,1,0.8,1.9,1.9,1.9h20c1,0,1.9-0.8,1.9-1.9v-16
			C144.7,26.2,143.9,25.3,142.8,25.3z"/>
		<circle class="st8" cx="132.8" cy="35.2" r="3.5"/>
	</g>
	<g>
		<line class="st10" x1="129.5" y1="12.3" x2="129.5" y2="17"/>
		<line class="st10" x1="131.8" y1="14.7" x2="127.1" y2="14.7"/>
	</g>
	<g>
		<line class="st10" x1="11.3" y1="119.6" x2="11.3" y2="124.3"/>
		<line class="st10" x1="13.7" y1="121.9" x2="9" y2="121.9"/>
	</g>
	<g>
		<line class="st10" x1="116.6" y1="120.4" x2="116.6" y2="125.1"/>
		<line class="st10" x1="118.9" y1="122.8" x2="114.2" y2="122.8"/>
	</g>
	<circle class="st10" cx="23.4" cy="82.1" r="2.3"/>
	<circle class="st10" cx="105.7" cy="35.1" r="2.3"/>
	<g>
		<g>
			<path class="st4" d="M80.3,31.4l-1.5-0.8c-0.2-0.1-0.3-0.3-0.2-0.5c0.2-1,0.3-2,0.3-3c0-1-0.1-2-0.3-3c0-0.2,0.1-0.4,0.2-0.5
				l1.5-0.8c0.1-0.1,0.2-0.2,0.3-0.3c0-0.1,0-0.3-0.1-0.4l-3.1-5.4c-0.1-0.1-0.2-0.2-0.3-0.3c-0.1,0-0.3,0-0.4,0.1l-1.5,0.8
				c-0.2,0.1-0.4,0.1-0.6-0.1c-1.5-1.4-3.3-2.4-5.2-3c-0.2-0.1-0.3-0.3-0.3-0.5v-1.7c0-0.3-0.2-0.6-0.6-0.6h-6.3
				c-0.3,0-0.6,0.2-0.6,0.6v1.7c0,0.2-0.1,0.4-0.3,0.5c-1.9,0.6-3.7,1.6-5.2,3c-0.2,0.1-0.4,0.2-0.6,0.1l-1.5-0.8
				c-0.1-0.1-0.3-0.1-0.4-0.1c-0.1,0-0.3,0.1-0.3,0.3L50,21.9C50,22,49.9,22.2,50,22.3c0,0.1,0.1,0.3,0.3,0.3l1.5,0.8
				c0.2,0.1,0.3,0.3,0.2,0.5c-0.2,1-0.3,2-0.3,3c0,1,0.1,2,0.3,3c0,0.2-0.1,0.4-0.2,0.5l-1.5,0.8c-0.3,0.2-0.4,0.5-0.2,0.8l3.1,5.4
				c0.2,0.3,0.5,0.4,0.8,0.2l1.5-0.8c0.1,0,0.2-0.1,0.2-0.1c0.1,0,0.2,0,0.3,0.1c1.5,1.4,3.3,2.4,5.2,3c0.2,0.1,0.3,0.3,0.3,0.5v1.7
				c0,0.3,0.2,0.6,0.6,0.6h6.3c0.3,0,0.6-0.3,0.6-0.6v-1.7c0-0.2,0.1-0.4,0.3-0.5c1.9-0.6,3.7-1.6,5.2-3c0.2-0.1,0.4-0.2,0.6-0.1
				l1.5,0.8c0.3,0.2,0.6,0.1,0.8-0.2l3.1-5.4C80.6,31.9,80.5,31.6,80.3,31.4z M65.2,36c-4.9,0-8.9-4-8.9-8.9c0-4.9,4-8.9,8.9-8.9
				c4.9,0,8.9,4,8.9,8.9C74.2,32,70.2,36,65.2,36z"/>
			<g>
				<g>
					<path d="M80.8,30.6l-1.2-0.7c0.2-1,0.3-1.9,0.3-2.9c0-1-0.1-1.9-0.3-2.9l1.1-0.7c0.4-0.2,0.6-0.5,0.7-0.9
						c0.1-0.4,0.1-0.8-0.2-1.2L78.2,16c-0.2-0.4-0.5-0.6-0.9-0.7c-0.4-0.1-0.8-0.1-1.2,0.2l-1.2,0.7c-1.5-1.3-3.2-2.3-5-2.9v-1.3
						c0-0.8-0.7-1.5-1.5-1.5h-6.3c-0.8,0-1.5,0.7-1.5,1.5v1.3c-1.8,0.6-3.5,1.6-5,2.9l-1.2-0.7c-0.4-0.2-0.8-0.3-1.2-0.2
						c-0.4,0.1-0.7,0.4-0.9,0.7l-3.1,5.5c-0.2,0.4-0.3,0.8-0.1,1.2c0.1,0.4,0.4,0.7,0.7,0.9l1.2,0.7c-0.2,1-0.3,1.9-0.3,2.9
						c0,1,0.1,1.9,0.3,2.9l-1.1,0.7c-0.7,0.4-1,1.4-0.6,2.1l3.1,5.5c0.4,0.7,1.4,1,2.1,0.6l1.2-0.7c1.5,1.3,3.2,2.3,5,2.9v1.3
						c0,0.8,0.7,1.5,1.5,1.5h6.3c0.8,0,1.5-0.7,1.5-1.5v-1.3c1.8-0.6,3.5-1.6,5-2.9l1.2,0.7c0.7,0.4,1.7,0.2,2.1-0.6l3.1-5.5
						C81.7,32,81.5,31,80.8,30.6z M80.5,32.2l-3.1,5.4c-0.2,0.3-0.5,0.4-0.8,0.2L75.1,37c-0.2-0.1-0.4-0.1-0.6,0.1
						c-1.5,1.4-3.3,2.4-5.2,3c-0.2,0.1-0.3,0.3-0.3,0.5v1.7c0,0.3-0.2,0.6-0.6,0.6h-6.3c-0.3,0-0.6-0.3-0.6-0.6v-1.7
						c0-0.2-0.1-0.4-0.3-0.5c-1.9-0.6-3.7-1.6-5.2-3c-0.1-0.1-0.2-0.1-0.3-0.1c-0.1,0-0.2,0-0.2,0.1l-1.5,0.8
						c-0.3,0.2-0.6,0.1-0.8-0.2L50,32.2c-0.2-0.3-0.1-0.6,0.2-0.8l1.5-0.8c0.2-0.1,0.3-0.3,0.2-0.5c-0.2-1-0.3-2-0.3-3
						c0-1,0.1-2,0.3-3c0-0.2-0.1-0.4-0.2-0.5l-1.5-0.8c-0.1-0.1-0.2-0.2-0.3-0.3c0-0.1,0-0.3,0.1-0.4l3.1-5.4
						c0.1-0.1,0.2-0.2,0.3-0.3c0.1,0,0.3,0,0.4,0.1l1.5,0.8c0.2,0.1,0.4,0.1,0.6-0.1c1.5-1.4,3.3-2.4,5.2-3c0.2-0.1,0.3-0.3,0.3-0.5
						v-1.7c0-0.3,0.2-0.6,0.6-0.6h6.3c0.3,0,0.6,0.2,0.6,0.6v1.7c0,0.2,0.1,0.4,0.3,0.5c1.9,0.6,3.7,1.6,5.2,3
						c0.2,0.1,0.4,0.2,0.6,0.1l1.5-0.8c0.1-0.1,0.3-0.1,0.4-0.1c0.1,0,0.3,0.1,0.3,0.3l3.1,5.4c0.1,0.1,0.1,0.3,0.1,0.4
						c0,0.1-0.1,0.3-0.3,0.3l-1.5,0.8c-0.2,0.1-0.3,0.3-0.2,0.5c0.2,1,0.3,2,0.3,3c0,1-0.1,2-0.3,3c-0.1,0.2,0,0.4,0.2,0.5l1.5,0.8
						C80.5,31.6,80.6,31.9,80.5,32.2z"/>
				</g>
				<path d="M65.2,17.1c-5.5,0-9.9,4.5-9.9,9.9c0,5.5,4.5,9.9,9.9,9.9c5.5,0,9.9-4.5,9.9-9.9C75.2,21.6,70.7,17.1,65.2,17.1z
					 M65.2,36c-4.9,0-8.9-4-8.9-8.9c0-4.9,4-8.9,8.9-8.9c4.9,0,8.9,4,8.9,8.9C74.2,32,70.2,36,65.2,36z"/>
				<path d="M70.2,15.5c-0.4-0.2-0.7-0.3-1.1-0.4c-0.3-0.1-0.5,0.1-0.6,0.3c-0.1,0.3,0.1,0.5,0.3,0.6c0.3,0.1,0.7,0.2,1,0.4
					c0.1,0,0.1,0,0.2,0c0.2,0,0.4-0.1,0.4-0.3C70.5,15.9,70.4,15.6,70.2,15.5z"/>
				<path d="M55.7,33.6c-0.2-0.3-0.4-0.7-0.6-1c-0.1-0.2-0.4-0.3-0.7-0.2c-0.2,0.1-0.3,0.4-0.2,0.7c0.2,0.4,0.4,0.7,0.7,1.1
					c0.1,0.1,0.3,0.2,0.4,0.2c0.1,0,0.2,0,0.3-0.1C55.8,34.1,55.9,33.8,55.7,33.6z"/>
				<path d="M64.2,38.6c-2.6-0.2-5.1-1.4-7-3.2c-0.2-0.2-0.5-0.2-0.7,0c-0.2,0.2-0.2,0.5,0,0.7c2.1,2,4.8,3.2,7.6,3.5h0
					c0.3,0,0.5-0.2,0.5-0.4C64.7,38.8,64.5,38.6,64.2,38.6z"/>
				<path d="M77.4,23.8c-0.8-2.9-2.6-5.4-5-7.1c-0.2-0.1-0.5-0.1-0.7,0.1c-0.2,0.2-0.1,0.5,0.1,0.7c2.3,1.6,3.9,3.9,4.7,6.5
					c0.1,0.2,0.3,0.4,0.5,0.4c0,0,0.1,0,0.1,0C77.3,24.3,77.4,24,77.4,23.8z"/>
			</g>
		</g>
		<g>
			<line class="st10" x1="60.2" y1="24.3" x2="66.4" y2="24.3"/>
			<line class="st10" x1="68.4" y1="24.3" x2="70.3" y2="24.3"/>
			<line class="st10" x1="62" y1="27" x2="70.3" y2="27"/>
			<line class="st10" x1="65.4" y1="29.8" x2="70.3" y2="29.8"/>
			<line class="st10" x1="60.2" y1="29.8" x2="62" y2="29.8"/>
			<line class="st10" x1="63.6" y1="29.8" x2="63.7" y2="29.8"/>
		</g>
	</g>
</g>
</svg>
