<?xml version="1.0" encoding="utf-8"?>
<!-- Generator: Adobe Illustrator 22.0.1, SVG Export Plug-In . SVG Version: 6.00 Build 0)  -->
<svg version="1.1" id="Layer_1" xmlns="http://www.w3.org/2000/svg" xmlns:xlink="http://www.w3.org/1999/xlink" x="0px" y="0px"
	 viewBox="0 0 151.3 151.3" style="enable-background:new 0 0 151.3 151.3;" xml:space="preserve">
<style type="text/css">
	.st0{fill:#EF8087;stroke:#000000;stroke-width:1.4233;stroke-miterlimit:10;}
	.st1{clip-path:url(#SVGID_2_);}
	.st2{fill:#FFFFFF;}
	.st3{fill:#407BFF;}
	.st4{fill:#0092FA;}
	.st5{fill:#0282D1;}
	.st6{fill:#B55B52;}
	.st7{fill:#DDE3E9;}
	.st8{fill:#263238;}
	.st9{fill:#3EDDA4;stroke:#000000;stroke-width:1.4313;stroke-linecap:round;stroke-linejoin:round;stroke-miterlimit:10;}
	.st10{fill:#FFFFFF;stroke:#000000;stroke-width:1.4313;stroke-linecap:round;stroke-linejoin:round;stroke-miterlimit:10;}
	.st11{fill:#5BEFBD;stroke:#000000;stroke-width:1.4313;stroke-linecap:round;stroke-linejoin:round;stroke-miterlimit:10;}
	.st12{fill:none;stroke:#000000;stroke-width:1.4175;stroke-linecap:round;stroke-linejoin:round;stroke-miterlimit:10;}
	.st13{fill:none;stroke:#000000;stroke-width:0.9754;stroke-linecap:round;stroke-linejoin:round;stroke-miterlimit:10;}
	.st14{fill:#FFE566;stroke:#000000;stroke-width:1.4175;stroke-linecap:round;stroke-linejoin:round;stroke-miterlimit:10;}
	.st15{fill:none;stroke:#000000;stroke-width:1.418;stroke-linecap:round;stroke-linejoin:round;}
</style>
<g>
	<circle class="st0" cx="76" cy="74.5" r="73.5"/>
	<g>
		<defs>
			<circle id="SVGID_1_" cx="76" cy="74.5" r="73"/>
		</defs>
		<clipPath id="SVGID_2_">
			<use xlink:href="#SVGID_1_"  style="overflow:visible;"/>
		</clipPath>
		<g class="st1">
			<path d="M43.5,40.5c-8.9-2.8-13.8,6.8-12.9,18.7c0.6,8.5-1.4,27.4-6.5,27.2c2.4,5.6,32.5,14,41.2,4c-2.4-1.3-3.4-22.4-1.6-27.7
				C67.7,50.7,64,32.7,43.5,40.5z"/>
			<path class="st2" d="M69.3,93.4l0.3,1.4l0.4,1.5c0.3,1,0.6,2,0.9,3c0.6,2,1.2,4,1.9,6c0.7,2,1.4,4,2.1,6c0.4,1,0.7,2,1.1,3
				l0.5,1.2c0.1,0.2,0.2,0.4,0.4,0.6c0.7,0.9,2.3,1.8,4,2.5c1.7,0.7,3.7,1.3,5.7,1.8c2,0.5,4.1,0.9,6.2,1.2c2.1,0.4,4.2,0.6,6.3,0.8
				l0.1,4.3c-4.5,0.4-9,0.5-13.6,0c-2.3-0.2-4.6-0.7-7-1.4c-1.2-0.4-2.4-0.8-3.6-1.4c-1.2-0.6-2.5-1.4-3.6-2.5
				c-0.6-0.6-1.1-1.3-1.6-2.1c-0.1-0.2-0.2-0.4-0.3-0.6l-0.2-0.4l-0.4-0.8c-0.5-1-1-2-1.4-3c-0.9-2-1.8-4.1-2.6-6.2
				c-0.8-2.1-1.6-4.2-2.2-6.4c-0.3-1.1-0.6-2.2-0.9-3.3l-0.4-1.7c-0.1-0.6-0.2-1.1-0.4-1.8L69.3,93.4z"/>
			<g>
				<path class="st3" d="M66.6,84.4c3.4,0.9,5.8,14.8,5.8,14.8l-9.4,6.4c0,0-9-14.1-6.4-17.8C59.4,83.9,61.6,83.2,66.6,84.4z"/>
				<path class="st4" d="M66.6,84.4c3.4,0.9,5.8,14.8,5.8,14.8l-9.4,6.4c0,0-9-14.1-6.4-17.8C59.4,83.9,61.6,83.2,66.6,84.4z"/>
			</g>
			<g>
				<path class="st3" d="M66.9,89.5l-7.3,1.7l-0.7,7.1c1.9,3.9,4.1,7.3,4.1,7.3l5.7-3.9C68.4,98.5,67.8,91.7,66.9,89.5z"/>
				<path class="st5" d="M66.9,89.5l-7.3,1.7l-0.7,7.1c1.9,3.9,4.1,7.3,4.1,7.3l5.7-3.9C68.4,98.5,67.8,91.7,66.9,89.5z"/>
			</g>
			<path class="st6" d="M97.9,122.3l5.8-5.9l0.8,8.3c0,0-4.4,3-7.4,1.4L97.9,122.3z"/>
			<polygon class="st6" points="110.6,115.5 110.9,122.5 104.5,124.7 103.7,116.3 			"/>
			<g>
				<path class="st4" d="M66.6,84.4c0,0,3.2,6-4.7,54.4c-13.3,0-25.6,0.9-32.1,0.9c0.6-13.6,0-27.5-6.5-55.5c0,0,7-1.5,14.2-1.9
					c5.6-0.3,10.3-0.5,15.2,0C59.2,82.9,66.6,84.4,66.6,84.4z"/>
			</g>
			<g>
				<path class="st3" d="M56.5,82.8c-1.3-0.2-2.6-0.3-3.9-0.4c-5-0.5-9.6-0.3-15.2,0c-1.2,0.1-2.3,0.1-3.5,0.3l0.2,0.8
					c0.1,0.4,3.5,10.6,15.6,16l2.3,1l1.6-1.9C59,92.4,57.7,86,56.5,82.8z"/>
				<path class="st5" d="M56.5,82.8c-1.3-0.2-2.6-0.3-3.9-0.4c-5-0.5-9.6-0.3-15.2,0c-1.2,0.1-2.3,0.1-3.5,0.3l0.2,0.8
					c0.1,0.4,3.5,10.6,15.6,16l2.3,1l1.6-1.9C59,92.4,57.7,86,56.5,82.8z"/>
			</g>
			<g>
				<path class="st3" d="M31.1,97.2l-4.3,3.7c0.9,4.9,1.5,9,1.9,12.6C29.5,109.8,31.6,100,31.1,97.2z"/>
				<path class="st5" d="M31.6,94.5l-4.8,6.3c0.9,4.9,1.5,9,1.9,12.6C29.5,109.8,32,97.3,31.6,94.5z"/>
			</g>
			<path class="st2" d="M57.5,45.3c-6.6-5.4-16.1-1.8-18,6.1c-0.2,1-0.5,1.9-0.7,2.7c-1.8-0.7-3.4,0.6-3.4,2.5
				c0,1.7,0.7,3.3,1.6,4.3c0.2,0.2,0.4,0.4,0.6,0.5c0,2.2,0.5,4.1,1.7,6.4c0.1,0.1,0.2,0.3,0.2,0.4c0.6,4.9,0.7,11.3-2,13.9
				c0,0,2.9,9.1,13.7,14c5.8-6.8,1.5-14,1.5-14c-4.9-1.2-5.3-4.6-4.6-8.1c3.7,0.4,7.5-1.2,9.7-5C61.7,62.7,64.2,50.8,57.5,45.3z"/>
			<path class="st7" d="M40.6,69.1c1.8,2.3,5,4.1,7.5,5.1c-0.2,0.9-0.2,0.6-0.2,1.5C44.7,74.6,41.7,71.2,40.6,69.1z"/>
			<path d="M38,56.2c0,0,16.5-5.1,8.9-13.8c-8.9,2.2-8.9,4.8-8.9,4.8V56.2z"/>
			<path d="M48,47.3c6.2,0.6,12.4,4.3,14.3,7.6c1.2-5.6-2.9-12.7-7.4-13.6c-4.5-1-9.9,1.1-9.9,1.1L48,47.3z"/>
			<g>
				<path class="st5" d="M29.9,136.3l-0.3,3c-0.1,0.2,0.9,0.8,1.3,0.8l31.9-1c0.3,0,0.6-0.1,0.6-0.3l0.3-3c0-0.2-0.2-0.4-0.6-0.4
					L30.5,136C30.2,136,30,136.1,29.9,136.3z"/>
			</g>
			<path class="st8" d="M33.2,136h-0.9c-0.2,0-0.3-0.1-0.3-0.2l0.4-3.9c0-0.1,0.2-0.2,0.4-0.2h0.9c0.2,0,0.3,0.1,0.3,0.2l-0.4,3.9
				C33.6,135.9,33.4,136,33.2,136z"/>
			<path class="st8" d="M60.3,136h-0.9c-0.2,0-0.3-0.1-0.3-0.2l0.4-3.9c0-0.1,0.2-0.2,0.4-0.2h0.9c0.2,0,0.3,0.1,0.3,0.2l-0.4,3.9
				C60.6,135.9,60.4,136,60.3,136z"/>
			<g>
				<polygon class="st7" points="92.9,139.3 57.4,147.6 31.9,140.9 32.1,138.6 				"/>
				<polygon class="st9" points="122.6,111 63.9,111 55.4,145.7 57.4,147.4 57.9,145.7 114.1,145.7 				"/>
				<polygon class="st10" points="57.4,147.6 55.5,145 32.2,139 31.9,140.9 				"/>
				<g>
					<path class="st2" d="M47.3,141.3c0,0-0.1,0-0.2,0c-1.2,0-5-0.2-7-2.4c-4.1-0.9-7.9-2-11.5-3.3c-3-1.1-5.3-2.2-7.5-3.6
						c-1.1-0.7-2.4-1.6-3.8-2.8c-1.1-1.1-2.5-2.6-3.3-5c-0.2-0.7-0.3-1.3-0.4-1.9l0-0.5l0-0.4l0-0.6c0-0.7,0-1.4,0-2.3
						c0.1-1.3,0.2-2.6,0.4-4.2c0.4-2.5,0.8-5.1,1.5-7.8c0.7-2.8,1.3-5.2,1.9-7.5l0.1-0.4c0.7-2.4,1.4-4.7,2.2-7.1l0.3-0.9l9.9,3.3
						l-0.9,2.9c-0.5,1.6-1,3.3-1.5,5c-0.8,2.6-1.4,4.8-2,7.1c-0.6,2.2-1.2,4.6-1.6,7c-0.3,1.3-0.4,2.4-0.5,3.3
						c-0.1,0.8-0.1,1.8-0.2,2c0,0.1,0.3,0.6,0.8,1.1c0.5,0.6,1.2,1.2,2.1,1.9c1.5,1.1,3.4,2.2,5.8,3.5c3.7,1.9,8.1,3.7,12.9,5.5
						l4.6-0.1c0.5,0,1.1,0.1,1.6,0.4l3.8,2.2c1.4,0.8,2,2.6,1.2,4.1l-0.4,0.8c-0.6,1.2-2,1.8-3.4,1.5L47.3,141.3z"/>
					<path class="st4" d="M23.2,84.2c-3.4,1-8.5,14.2-8.5,14.2l13,9.3c0,0,5.1-12.5,3.7-16.9C30,86.3,27.1,83,23.2,84.2z"/>
				</g>
				<polygon class="st11" points="125.2,111 66.4,111 57.4,147.6 116.2,146.1 				"/>
			</g>
		</g>
	</g>
	<g>
		<line class="st12" x1="121.4" y1="32.3" x2="121.4" y2="37.2"/>
		<line class="st12" x1="123.8" y1="34.8" x2="119" y2="34.8"/>
	</g>
	<g>
		<line class="st13" x1="119.4" y1="102.8" x2="119.4" y2="105.8"/>
		<line class="st13" x1="121" y1="104.3" x2="117.9" y2="104.3"/>
	</g>
	<g>
		<line class="st12" x1="26.4" y1="39.5" x2="26.4" y2="44.4"/>
		<line class="st12" x1="28.8" y1="42" x2="24" y2="42"/>
	</g>
	<circle class="st12" cx="5.3" cy="110.4" r="2.3"/>
	<path class="st14" d="M92.9,49.3H78.7c-2.4,0-4.3-1.9-4.3-4.3V30.9c0-2.4,1.9-4.3,4.3-4.3h14.1c2.4,0,4.3,1.9,4.3,4.3V45
		C97.1,47.4,95.2,49.3,92.9,49.3z"/>
	<path class="st14" d="M128,83.6h-14.1c-2.4,0-4.3-1.9-4.3-4.3V65.2c0-2.4,1.9-4.3,4.3-4.3H128c2.4,0,4.3,1.9,4.3,4.3v14.1
		C132.3,81.7,130.4,83.6,128,83.6z"/>
	<g>
		<g>
			<path class="st15" d="M84.6,62.9c0,0-7.4,21.1,1.5,39.1"/>
			<g>
				<path d="M80.8,98.9c0.1-0.2,0.3-0.2,0.5-0.1l4.7,3l0.7-5.6c0-0.2,0.2-0.3,0.4-0.3c0.2,0,0.3,0.2,0.3,0.4l-0.8,6.1
					c0,0.1-0.1,0.2-0.2,0.3c-0.1,0.1-0.2,0-0.4,0l-5.2-3.3c-0.1,0-0.1-0.1-0.1-0.2C80.7,99.2,80.7,99,80.8,98.9z"/>
			</g>
		</g>
	</g>
	<g>
		<g>
			<path class="st15" d="M116.8,89.5c0,0-6.9,10.4-16.8,14.5"/>
			<g>
				<path d="M103.2,98.8c0.2,0.1,0.2,0.3,0.1,0.5l-3.2,4.6l5.5,1c0.2,0,0.3,0.2,0.3,0.4c0,0.2-0.2,0.3-0.4,0.3l-6.1-1.1
					c-0.1,0-0.2-0.1-0.3-0.2c0-0.1,0-0.2,0-0.4l3.5-5.1c0-0.1,0.1-0.1,0.2-0.1C103,98.7,103.1,98.7,103.2,98.8z"/>
			</g>
		</g>
	</g>
</g>
<g>
	<path d="M91.6,39.5c-0.3-0.4-0.6-0.8-1.1-1c-0.3-0.2-0.8-0.3-1.3-0.5c0.5-0.2,1-0.4,1.3-0.7c0.3-0.3,0.6-0.6,0.8-1
		c0.2-0.4,0.3-0.8,0.3-1.2c0-0.6-0.2-1.1-0.5-1.6c-0.3-0.5-0.8-0.8-1.4-1.1c-0.2-0.1-0.5-0.2-0.8-0.2V30h-2.1v2h-1.4v-2h-2.1v2H80
		v1.7h0.5c0.3,0,0.6,0,0.7,0.1c0.1,0.1,0.2,0.1,0.2,0.2c0,0.1,0.1,0.3,0.1,0.7v6.9c0,0.4,0,0.6-0.1,0.7c0,0.1-0.1,0.2-0.2,0.2
		c-0.1,0.1-0.3,0.1-0.7,0.1H80v1.7h3.2v2h2.1v-2h1.2c0.1,0,0.1,0,0.2,0v2h2.1v-2.2c0.4-0.1,0.7-0.2,0.9-0.3c0.7-0.3,1.3-0.7,1.7-1.3
		c0.4-0.6,0.6-1.2,0.6-1.8C92,40.4,91.9,39.9,91.6,39.5z M84.6,34.1h1.4c0.8,0,1.4,0,1.7,0.2c0.3,0.1,0.5,0.3,0.7,0.5
		c0.2,0.2,0.2,0.5,0.2,0.8c0,0.3-0.1,0.6-0.3,0.8c-0.2,0.2-0.4,0.4-0.8,0.5c-0.3,0.1-0.9,0.2-1.6,0.2h-1.4L84.6,34.1L84.6,34.1z
		 M88.4,41.7c-0.2,0.3-0.5,0.5-0.9,0.6c-0.3,0.1-0.8,0.1-1.3,0.1h-0.9c-0.3,0-0.5,0-0.6,0c-0.1,0-0.1-0.1-0.1-0.2c0-0.1,0-0.3,0-0.7
		v-2.7h1.6c0.7,0,1.2,0.1,1.6,0.2c0.3,0.1,0.6,0.3,0.8,0.6c0.2,0.3,0.3,0.6,0.3,0.9C88.8,41.1,88.7,41.4,88.4,41.7z"/>
</g>
<path d="M126.2,75.7c0-1.3-0.5-2.4-1.6-3.2c-0.8-0.6-1.8-0.9-2.8-1.2c-2-0.6-2.6-0.9-2.6-1.9c0-1.1,1.4-1.4,2.6-1.4
	c0.9,0,1.9,0.3,2.5,0.7l1.2-1.9c-0.8-0.5-1.9-0.9-3-1V64h-2.3v1.9c-2,0.4-3.3,1.8-3.3,3.5c0,1.3,0.5,2.2,1.5,2.9
	c0.8,0.5,1.7,0.8,2.6,1.1c2,0.6,2.8,1,2.8,2.2l0,0c0,1-1.3,1.4-2.5,1.4c-1.1,0-2.3-0.5-2.9-1.2l-1.6,1.6c0.8,0.9,2.1,1.5,3.4,1.8V81
	h2.3v-1.8C124.7,78.9,126.2,77.5,126.2,75.7z"/>
</svg>
