<?xml version="1.0" encoding="utf-8"?>
<!-- Generator: Adobe Illustrator 22.0.1, SVG Export Plug-In . SVG Version: 6.00 Build 0)  -->
<svg version="1.1" id="Layer_1" xmlns="http://www.w3.org/2000/svg" xmlns:xlink="http://www.w3.org/1999/xlink" x="0px" y="0px"
	 viewBox="0 0 151.3 151.3" style="enable-background:new 0 0 151.3 151.3;" xml:space="preserve">
<style type="text/css">
	.st0{fill:#FFE566;stroke:#000000;stroke-width:1.2233;stroke-miterlimit:10;}
	.st1{fill:none;stroke:#000000;stroke-width:0.9175;stroke-linecap:round;stroke-linejoin:round;stroke-miterlimit:10;}
	.st2{fill:#0092FA;stroke:#000000;stroke-width:1.2233;stroke-linecap:round;stroke-linejoin:round;stroke-miterlimit:10;}
	.st3{fill:#FFFFFF;stroke:#000000;stroke-width:1.2233;stroke-miterlimit:10;}
	.st4{fill:#FFFFFF;stroke:#000000;stroke-width:1.2233;stroke-linejoin:round;stroke-miterlimit:10;}
	.st5{fill:#EF8087;stroke:#000000;stroke-width:1.2233;stroke-linecap:round;stroke-linejoin:round;stroke-miterlimit:10;}
	.st6{fill:#3EDDA4;}
	.st7{fill:#5BEFBD;}
	.st8{fill:none;stroke:#FFFFFF;stroke-width:1.5958;stroke-linecap:round;stroke-linejoin:round;stroke-miterlimit:10;}
	.st9{fill:#FFE566;}
	.st10{fill:#F4D345;}
	.st11{fill:none;stroke:#000000;stroke-width:0.465;stroke-miterlimit:10;}
	.st12{fill:none;stroke:#000000;stroke-width:0.465;stroke-linecap:round;stroke-linejoin:round;stroke-miterlimit:10;}
	.st13{fill:#231F20;}
</style>
<g>
	<g>
		<circle class="st0" cx="75.7" cy="76.5" r="74.3"/>
		<g>
			<line class="st1" x1="35.3" y1="112.4" x2="35.3" y2="117.3"/>
			<line class="st1" x1="37.7" y1="114.9" x2="32.8" y2="114.9"/>
		</g>
		<g>
			<line class="st1" x1="135" y1="69.8" x2="135" y2="74.7"/>
			<line class="st1" x1="137.4" y1="72.2" x2="132.5" y2="72.2"/>
		</g>
		<g>
			<line class="st1" x1="141.5" y1="25.3" x2="141.5" y2="30.3"/>
			<line class="st1" x1="144" y1="27.8" x2="139.1" y2="27.8"/>
		</g>
		<circle class="st1" cx="84.5" cy="28.4" r="2.4"/>
		<circle class="st1" cx="79.2" cy="134.9" r="2.4"/>
	</g>
	<g>
		<rect x="67.8" y="47.9" class="st2" width="51" height="42.6"/>
		<polygon class="st3" points="95.4,58.7 58.4,58.7 58.4,101.3 109.5,101.3 109.5,72.8 		"/>
		<path class="st4" d="M99.1,72.8h10.4L95.4,58.7v10.4C95.4,71.1,97,72.8,99.1,72.8z"/>
		<path class="st5" d="M105.2,77.5H80.4c-1.2,0-2.2-0.8-2.4-2l-0.9-4.8c-0.1-0.7-0.8-1.2-1.5-1.2H53.9c-1.3,0-2.3,1-2.3,2.3v8.1v2.1
			v30.8c0,1.3,1,2.3,2.3,2.3h51.3c1.3,0,2.3-1,2.3-2.3V79.8C107.5,78.5,106.5,77.5,105.2,77.5z"/>
		<path class="st6" d="M126.1,86.9c-7.2,0-16.6-6.1-16.6-6.2c-0.1,0.1-9.4,6.2-16.6,6.2c-1,0-2-0.1-3-0.1v11.6
			c0,10.7,5.3,20.6,14,26.1l5.6,3.5l5.6-3.5c8.7-5.5,14-15.4,14-26.1V86.8C128.1,86.9,127.1,86.9,126.1,86.9z"/>
		<path class="st7" d="M105.6,121.7c-7.7-4.8-12.4-13.8-12.4-23.3v-8.1c3.4-0.1,7.5-1.2,12.1-3.4c0,0,2.3-1.1,4.2-2.2
			c1.9,1.1,4.2,2.2,4.2,2.2c4.6,2.2,8.7,3.3,12.1,3.4v8.1c0,9.5-4.8,18.5-12.4,23.3l-3.9,2.4L105.6,121.7z"/>
		<polyline class="st8" points="103,103.5 107.9,108.5 118.9,97.6 		"/>
	</g>
	<g>
		<g>
			<path class="st9" d="M39.2,72.7C39.2,79.5,33.7,85,27,85c-6.8,0-12.2-5.5-12.2-12.2S20.2,60.5,27,60.5
				C33.7,60.5,39.2,66,39.2,72.7z"/>
			<path class="st9" d="M37,72.7c0,5.5-4.5,10-10,10c-5.5,0-10-4.5-10-10c0-5.5,4.5-10,10-10C32.5,62.7,37,67.2,37,72.7z"/>
			<path class="st10" d="M26.9,60.5c-6.7,0-12.2,5.5-12.2,12.2S20.2,84.9,26.9,85V60.5z"/>
			<g>
				<path class="st11" d="M39.2,72.7C39.2,79.5,33.7,85,27,85c-6.8,0-12.2-5.5-12.2-12.2S20.2,60.5,27,60.5
					C33.7,60.5,39.2,66,39.2,72.7z"/>
				<path class="st11" d="M37,72.7c0,5.5-4.5,10-10,10c-5.5,0-10-4.5-10-10c0-5.5,4.5-10,10-10C32.5,62.7,37,67.2,37,72.7z"/>
			</g>
			<g>
				<g>
					<g>
						<line class="st11" x1="26.5" y1="60.5" x2="26.5" y2="62.7"/>
						<line class="st11" x1="26.5" y1="82.7" x2="26.5" y2="85"/>
					</g>
				</g>
			</g>
			<g>
				<g>
					<g>
						<line class="st11" x1="26.5" y1="60.5" x2="26.5" y2="62.7"/>
						<line class="st11" x1="26.5" y1="82.7" x2="26.5" y2="85"/>
					</g>
				</g>
			</g>
			<g>
				<g>
					<g>
						<line class="st11" x1="39.5" y1="72.7" x2="37.3" y2="72.7"/>
						<line class="st11" x1="17.3" y1="72.7" x2="15.1" y2="72.7"/>
					</g>
				</g>
			</g>
			<g>
				<g>
					<g>
						<line class="st11" x1="39.5" y1="72.7" x2="37.3" y2="72.7"/>
						<line class="st11" x1="17.3" y1="72.7" x2="15.1" y2="72.7"/>
					</g>
				</g>
			</g>
			<g>
				<g>
					<g>
						<line class="st11" x1="36" y1="64.1" x2="34.4" y2="65.6"/>
						<line class="st11" x1="20.2" y1="79.8" x2="18.7" y2="81.4"/>
					</g>
				</g>
			</g>
			<g>
				<g>
					<g>
						<line class="st11" x1="36" y1="64.1" x2="34.4" y2="65.6"/>
						<line class="st11" x1="20.2" y1="79.8" x2="18.7" y2="81.4"/>
					</g>
				</g>
			</g>
			<g>
				<g>
					<g>
						<line class="st11" x1="36" y1="81.4" x2="34.4" y2="79.8"/>
						<line class="st11" x1="20.2" y1="65.6" x2="18.7" y2="64.1"/>
					</g>
				</g>
			</g>
			<g>
				<g>
					<g>
						<line class="st11" x1="36" y1="81.4" x2="34.4" y2="79.8"/>
						<line class="st11" x1="20.2" y1="65.6" x2="18.7" y2="64.1"/>
					</g>
				</g>
			</g>
			<g>
				<g>
					<g>
						<line class="st11" x1="33.4" y1="62.1" x2="32.3" y2="64.1"/>
						<line class="st11" x1="22.3" y1="81.4" x2="21.2" y2="83.3"/>
					</g>
				</g>
			</g>
			<g>
				<g>
					<g>
						<line class="st11" x1="33.4" y1="62.1" x2="32.3" y2="64.1"/>
						<line class="st11" x1="22.3" y1="81.4" x2="21.2" y2="83.3"/>
					</g>
				</g>
			</g>
			<g>
				<g>
					<g>
						<line class="st11" x1="37.9" y1="78.9" x2="36" y2="77.8"/>
						<line class="st11" x1="18.6" y1="67.7" x2="16.7" y2="66.6"/>
					</g>
				</g>
			</g>
			<g>
				<g>
					<g>
						<line class="st11" x1="37.9" y1="78.9" x2="36" y2="77.8"/>
						<line class="st11" x1="18.6" y1="67.7" x2="16.7" y2="66.6"/>
					</g>
				</g>
			</g>
			<g>
				<g>
					<g>
						<line class="st11" x1="38.8" y1="69.6" x2="36.7" y2="70.2"/>
						<line class="st11" x1="17.3" y1="75.3" x2="15.2" y2="75.9"/>
					</g>
				</g>
			</g>
			<g>
				<g>
					<g>
						<line class="st11" x1="38.8" y1="69.6" x2="36.7" y2="70.2"/>
						<line class="st11" x1="17.3" y1="75.3" x2="15.2" y2="75.9"/>
					</g>
				</g>
			</g>
			<g>
				<g>
					<g>
						<line class="st11" x1="29.7" y1="84.5" x2="29.1" y2="82.4"/>
						<line class="st11" x1="24" y1="63" x2="23.4" y2="60.9"/>
					</g>
				</g>
			</g>
			<g>
				<g>
					<g>
						<line class="st11" x1="29.7" y1="84.5" x2="29.1" y2="82.4"/>
						<line class="st11" x1="24" y1="63" x2="23.4" y2="60.9"/>
					</g>
				</g>
			</g>
			<g>
				<g>
					<g>
						<line class="st11" x1="30.7" y1="61" x2="30.1" y2="63.1"/>
						<line class="st11" x1="24.5" y1="82.3" x2="23.9" y2="84.5"/>
					</g>
				</g>
			</g>
			<g>
				<g>
					<g>
						<line class="st11" x1="30.7" y1="61" x2="30.1" y2="63.1"/>
						<line class="st11" x1="24.5" y1="82.3" x2="23.9" y2="84.5"/>
					</g>
				</g>
			</g>
			<g>
				<g>
					<g>
						<line class="st11" x1="39.1" y1="76.1" x2="36.9" y2="75.5"/>
						<line class="st11" x1="17.7" y1="69.9" x2="15.6" y2="69.3"/>
					</g>
				</g>
			</g>
			<g>
				<g>
					<g>
						<line class="st11" x1="39.1" y1="76.1" x2="36.9" y2="75.5"/>
						<line class="st11" x1="17.7" y1="69.9" x2="15.6" y2="69.3"/>
					</g>
				</g>
			</g>
			<g>
				<g>
					<g>
						<line class="st11" x1="37.7" y1="66.8" x2="35.7" y2="67.9"/>
						<line class="st11" x1="18.2" y1="77.6" x2="16.3" y2="78.6"/>
					</g>
				</g>
			</g>
			<g>
				<g>
					<g>
						<line class="st11" x1="37.7" y1="66.8" x2="35.7" y2="67.9"/>
						<line class="st11" x1="18.2" y1="77.6" x2="16.3" y2="78.6"/>
					</g>
				</g>
			</g>
			<g>
				<g>
					<g>
						<line class="st11" x1="33.2" y1="83.4" x2="32.1" y2="81.5"/>
						<line class="st11" x1="22.5" y1="63.9" x2="21.4" y2="62"/>
					</g>
				</g>
			</g>
			<g>
				<g>
					<g>
						<line class="st11" x1="33.2" y1="83.4" x2="32.1" y2="81.5"/>
						<line class="st11" x1="22.5" y1="63.9" x2="21.4" y2="62"/>
					</g>
				</g>
			</g>
			<g>
				<path class="st12" d="M18.3,73.2c0-4.8,3.9-8.7,8.7-8.7"/>
				<path class="st12" d="M28.3,64.5c0,0,1.6,0,3.2,1.1"/>
			</g>
		</g>
		<g>
			<path class="st13" d="M31.2,70.4l-2.7,0.4c-0.1-0.3-0.3-0.6-0.4-0.7c-0.1-0.1-0.3-0.3-0.5-0.4v2.1c1.5,0.4,2.5,0.8,3,1.3
				c0.7,0.6,1,1.3,1,2.3c0,0.5-0.1,1-0.4,1.5c-0.2,0.4-0.5,0.8-0.9,1.1c-0.4,0.3-0.8,0.5-1.2,0.7c-0.4,0.1-0.9,0.2-1.5,0.2v1.4h-1.1
				v-1.4c-0.7-0.1-1.3-0.2-1.8-0.3c-0.4-0.2-0.8-0.4-1.2-0.7c-0.3-0.3-0.6-0.6-0.8-1c-0.2-0.3-0.3-0.8-0.4-1.3l3-0.3
				c0.1,0.5,0.2,0.8,0.4,1.1c0.1,0.2,0.4,0.4,0.7,0.6v-2.6c-1-0.3-1.7-0.5-2.1-0.7c-0.4-0.2-0.8-0.5-1.1-1c-0.3-0.4-0.5-1-0.5-1.6
				c0-0.9,0.3-1.6,0.9-2.2c0.6-0.6,1.5-0.9,2.7-1V67h1.1v0.7c1.1,0.1,1.9,0.3,2.5,0.8C30.6,69,31,69.6,31.2,70.4z M26.5,69.6
				c-0.3,0.1-0.5,0.2-0.7,0.4c-0.1,0.2-0.2,0.3-0.2,0.5c0,0.2,0.1,0.4,0.2,0.6c0.1,0.2,0.3,0.3,0.7,0.4V69.6z M27.6,76.9
				c0.4-0.1,0.7-0.2,0.9-0.5c0.2-0.2,0.3-0.5,0.3-0.7c0-0.2-0.1-0.4-0.2-0.6c-0.2-0.2-0.5-0.4-1-0.5V76.9z"/>
		</g>
	</g>
	<g>
		<g>
			<path class="st9" d="M66.8,32.7c0,6.8-5.5,12.2-12.2,12.2c-6.8,0-12.2-5.5-12.2-12.2s5.5-12.2,12.2-12.2
				C61.3,20.4,66.8,25.9,66.8,32.7z"/>
			<path class="st9" d="M64.5,32.7c0,5.5-4.5,10-10,10c-5.5,0-10-4.5-10-10c0-5.5,4.5-10,10-10C60.1,22.6,64.5,27.1,64.5,32.7z"/>
			<path class="st10" d="M54.5,20.4c-6.7,0-12.2,5.5-12.2,12.2s5.5,12.2,12.2,12.2V20.4z"/>
			<g>
				<path class="st11" d="M66.8,32.7c0,6.8-5.5,12.2-12.2,12.2c-6.8,0-12.2-5.5-12.2-12.2s5.5-12.2,12.2-12.2
					C61.3,20.4,66.8,25.9,66.8,32.7z"/>
				<path class="st11" d="M64.5,32.7c0,5.5-4.5,10-10,10c-5.5,0-10-4.5-10-10c0-5.5,4.5-10,10-10C60.1,22.6,64.5,27.1,64.5,32.7z"/>
			</g>
			<g>
				<g>
					<g>
						<line class="st11" x1="54.1" y1="20.4" x2="54.1" y2="22.6"/>
						<line class="st11" x1="54.1" y1="42.7" x2="54.1" y2="44.9"/>
					</g>
				</g>
			</g>
			<g>
				<g>
					<g>
						<line class="st11" x1="54.1" y1="20.4" x2="54.1" y2="22.6"/>
						<line class="st11" x1="54.1" y1="42.7" x2="54.1" y2="44.9"/>
					</g>
				</g>
			</g>
			<g>
				<g>
					<g>
						<line class="st11" x1="67.1" y1="32.7" x2="64.9" y2="32.7"/>
						<line class="st11" x1="44.8" y1="32.7" x2="42.6" y2="32.7"/>
					</g>
				</g>
			</g>
			<g>
				<g>
					<g>
						<line class="st11" x1="67.1" y1="32.7" x2="64.9" y2="32.7"/>
						<line class="st11" x1="44.8" y1="32.7" x2="42.6" y2="32.7"/>
					</g>
				</g>
			</g>
			<g>
				<g>
					<g>
						<line class="st11" x1="63.5" y1="24" x2="61.9" y2="25.6"/>
						<line class="st11" x1="47.8" y1="39.7" x2="46.2" y2="41.3"/>
					</g>
				</g>
			</g>
			<g>
				<g>
					<g>
						<line class="st11" x1="63.5" y1="24" x2="61.9" y2="25.6"/>
						<line class="st11" x1="47.8" y1="39.7" x2="46.2" y2="41.3"/>
					</g>
				</g>
			</g>
			<g>
				<g>
					<g>
						<line class="st11" x1="63.5" y1="41.3" x2="61.9" y2="39.7"/>
						<line class="st11" x1="47.8" y1="25.6" x2="46.2" y2="24"/>
					</g>
				</g>
			</g>
			<g>
				<g>
					<g>
						<line class="st11" x1="63.5" y1="41.3" x2="61.9" y2="39.7"/>
						<line class="st11" x1="47.8" y1="25.6" x2="46.2" y2="24"/>
					</g>
				</g>
			</g>
			<g>
				<g>
					<g>
						<line class="st11" x1="61" y1="22.1" x2="59.9" y2="24"/>
						<line class="st11" x1="49.8" y1="41.3" x2="48.7" y2="43.2"/>
					</g>
				</g>
			</g>
			<g>
				<g>
					<g>
						<line class="st11" x1="61" y1="22.1" x2="59.9" y2="24"/>
						<line class="st11" x1="49.8" y1="41.3" x2="48.7" y2="43.2"/>
					</g>
				</g>
			</g>
			<g>
				<g>
					<g>
						<line class="st11" x1="65.4" y1="38.8" x2="63.5" y2="37.7"/>
						<line class="st11" x1="46.2" y1="27.6" x2="44.3" y2="26.5"/>
					</g>
				</g>
			</g>
			<g>
				<g>
					<g>
						<line class="st11" x1="65.4" y1="38.8" x2="63.5" y2="37.7"/>
						<line class="st11" x1="46.2" y1="27.6" x2="44.3" y2="26.5"/>
					</g>
				</g>
			</g>
			<g>
				<g>
					<g>
						<line class="st11" x1="66.3" y1="29.5" x2="64.2" y2="30.1"/>
						<line class="st11" x1="44.8" y1="35.2" x2="42.7" y2="35.8"/>
					</g>
				</g>
			</g>
			<g>
				<g>
					<g>
						<line class="st11" x1="66.3" y1="29.5" x2="64.2" y2="30.1"/>
						<line class="st11" x1="44.8" y1="35.2" x2="42.7" y2="35.8"/>
					</g>
				</g>
			</g>
			<g>
				<g>
					<g>
						<line class="st11" x1="57.2" y1="44.5" x2="56.7" y2="42.3"/>
						<line class="st11" x1="51.5" y1="23" x2="50.9" y2="20.8"/>
					</g>
				</g>
			</g>
			<g>
				<g>
					<g>
						<line class="st11" x1="57.2" y1="44.5" x2="56.7" y2="42.3"/>
						<line class="st11" x1="51.5" y1="23" x2="50.9" y2="20.8"/>
					</g>
				</g>
			</g>
			<g>
				<g>
					<g>
						<line class="st11" x1="58.2" y1="20.9" x2="57.6" y2="23"/>
						<line class="st11" x1="52.1" y1="42.3" x2="51.5" y2="44.4"/>
					</g>
				</g>
			</g>
			<g>
				<g>
					<g>
						<line class="st11" x1="58.2" y1="20.9" x2="57.6" y2="23"/>
						<line class="st11" x1="52.1" y1="42.3" x2="51.5" y2="44.4"/>
					</g>
				</g>
			</g>
			<g>
				<g>
					<g>
						<line class="st11" x1="66.6" y1="36" x2="64.5" y2="35.4"/>
						<line class="st11" x1="45.2" y1="29.9" x2="43.1" y2="29.3"/>
					</g>
				</g>
			</g>
			<g>
				<g>
					<g>
						<line class="st11" x1="66.6" y1="36" x2="64.5" y2="35.4"/>
						<line class="st11" x1="45.2" y1="29.9" x2="43.1" y2="29.3"/>
					</g>
				</g>
			</g>
			<g>
				<g>
					<g>
						<line class="st11" x1="65.2" y1="26.7" x2="63.3" y2="27.8"/>
						<line class="st11" x1="45.7" y1="37.5" x2="43.8" y2="38.6"/>
					</g>
				</g>
			</g>
			<g>
				<g>
					<g>
						<line class="st11" x1="65.2" y1="26.7" x2="63.3" y2="27.8"/>
						<line class="st11" x1="45.7" y1="37.5" x2="43.8" y2="38.6"/>
					</g>
				</g>
			</g>
			<g>
				<g>
					<g>
						<line class="st11" x1="60.8" y1="43.4" x2="59.7" y2="41.4"/>
						<line class="st11" x1="50" y1="23.9" x2="48.9" y2="21.9"/>
					</g>
				</g>
			</g>
			<g>
				<g>
					<g>
						<line class="st11" x1="60.8" y1="43.4" x2="59.7" y2="41.4"/>
						<line class="st11" x1="50" y1="23.9" x2="48.9" y2="21.9"/>
					</g>
				</g>
			</g>
			<g>
				<path class="st12" d="M45.9,33.1c0-4.8,3.9-8.7,8.7-8.7"/>
				<path class="st12" d="M55.8,24.4c0,0,1.6,0,3.2,1.1"/>
			</g>
		</g>
		<path class="st13" d="M59,34c-0.4-0.5-0.9-0.8-1.7-1c0.5-0.2,0.9-0.4,1.2-0.7c0.4-0.5,0.6-1,0.6-1.6c0-0.8-0.3-1.4-0.8-1.9
			c-0.4-0.4-1-0.6-1.7-0.7v-1h-1.2V28h-1.2v-0.9h-1.2V28h-3.4v10.8h3.4v0.9h1.2v-0.9h1.2v0.9h1.2v-1c0.1,0,0.2,0,0.3,0
			c0.6-0.1,1-0.2,1.3-0.4c0.5-0.3,0.8-0.6,1.1-1.1c0.3-0.4,0.4-1,0.4-1.5C59.5,35.1,59.3,34.5,59,34z M52.9,30.2h1.5
			c0.5,0,0.9,0.1,1.1,0.3c0.2,0.2,0.3,0.4,0.3,0.7c0,0.3-0.1,0.6-0.3,0.8c-0.2,0.2-0.6,0.3-1.1,0.3h-1.5V30.2z M52.9,36.5v-2.2h1.7
			c0.6,0,1,0.1,1.2,0.3c0.2,0.2,0.4,0.5,0.4,0.8c0,0.3-0.1,0.6-0.4,0.8c-0.2,0.2-0.6,0.3-1.2,0.3H52.9z"/>
	</g>
</g>
</svg>
